<?xml version="1.0" standalone="no"?>
<!DOCTYPE svg PUBLIC "-//W3C//DTD SVG 20010904//EN"
 "http://www.w3.org/TR/2001/REC-SVG-20010904/DTD/svg10.dtd">
<svg version="1.0" xmlns="http://www.w3.org/2000/svg"
 width="892.000000pt" height="892.000000pt" viewBox="0 0 892.000000 892.000000"
 preserveAspectRatio="xMidYMid meet">
<metadata>
Created by potrace 1.14, written by Peter Selinger 2001-2017
</metadata>
<g transform="translate(0.000000,892.000000) scale(0.100000,-0.100000)"
fill="#000000" stroke="none">
<path d="M5130 7551 c0 -2 8 -10 18 -18 15 -13 15 -14 0 -9 -11 3 -15 0 -12
-7 3 -9 -20 -12 -83 -13 -145 -3 -142 -2 -138 -21 1 -10 8 -17 15 -15 6 1 9
-2 6 -7 -3 -5 -18 -8 -33 -6 -14 1 -39 -1 -54 -5 -22 -7 -29 -5 -32 8 -4 14
-5 14 -6 -2 -1 -12 -6 -16 -17 -12 -8 3 -12 2 -9 -4 3 -6 1 -10 -4 -10 -6 0
-11 4 -11 10 0 5 -7 7 -15 4 -11 -4 -12 -11 -5 -24 12 -22 4 -30 -31 -30 -22
0 -28 -5 -31 -27 -2 -19 -10 -27 -27 -30 -32 -5 -31 -3 -33 -51 -1 -36 -3 -39
-14 -24 -7 9 -14 13 -14 7 0 -5 -5 -3 -11 5 -9 13 -10 13 -6 0 2 -8 10 -14 16
-12 6 1 11 -5 11 -13 0 -18 -12 -19 -29 -2 -11 10 -11 8 0 -10 9 -15 17 -19
23 -13 17 17 29 11 15 -7 -10 -11 -10 -14 -1 -9 7 4 12 1 12 -9 0 -13 -4 -14
-21 -4 -24 12 -50 -3 -28 -16 8 -6 10 -4 4 5 -5 8 -3 11 6 8 8 -3 14 -10 14
-15 0 -6 4 -15 9 -20 5 -5 6 -3 2 5 -4 6 -2 12 4 12 7 0 10 -12 9 -28 -4 -33
8 -55 24 -45 25 15 37 11 37 -13 0 -14 -4 -23 -8 -20 -5 3 -9 -1 -9 -9 0 -8 3
-13 5 -10 3 3 11 0 18 -6 8 -7 14 -7 19 1 14 22 35 10 35 -20 0 -33 16 -39 36
-12 12 16 12 16 11 -3 -2 -14 3 -19 17 -17 13 2 16 -1 10 -10 -6 -10 -4 -10 7
-2 12 9 33 11 42 4 10 -8 37 -6 37 3 0 5 3 7 7 4 8 -8 -26 -47 -41 -47 -6 0
-6 4 2 9 10 6 10 11 -3 21 -15 12 -17 11 -13 -10 2 -20 9 -25 33 -26 17 0 36
4 44 10 11 8 13 8 7 -1 -5 -10 5 -13 41 -15 26 0 56 -1 66 0 19 2 23 -13 5
-24 -7 -5 -8 -3 -3 5 6 10 3 11 -14 2 -25 -14 -28 -23 -3 -14 15 6 16 5 2 -13
-14 -18 -14 -18 3 -5 14 11 17 11 17 0 0 -12 2 -12 9 0 6 9 11 10 15 3 10 -17
35 -3 30 16 -4 11 -1 9 8 -4 10 -16 23 -20 58 -19 25 1 53 -3 64 -8 11 -6 16
-5 13 1 -4 5 4 7 18 4 14 -2 25 -8 25 -12 0 -4 9 -10 19 -13 14 -3 18 -1 14 9
-6 17 13 19 23 3 4 -8 9 -7 15 2 5 9 9 10 9 3 0 -7 -9 -22 -21 -35 -11 -13
-18 -19 -15 -13 3 7 -1 15 -10 18 -21 8 -31 7 -18 -2 7 -4 8 -15 3 -27 -7 -18
-8 -18 -8 -2 -1 11 -6 15 -13 11 -6 -4 -8 -3 -5 3 4 6 -2 13 -12 16 -14 3 -18
1 -14 -11 5 -12 1 -14 -21 -8 -17 4 -25 3 -22 -3 4 -5 2 -13 -4 -16 -6 -4 -9
-1 -8 7 2 8 -7 13 -24 14 -15 1 -25 -3 -22 -7 3 -5 1 -9 -5 -9 -5 0 -12 6 -14
13 -4 9 -6 9 -6 -1 -1 -8 -6 -10 -13 -5 -22 13 -37 12 -31 -3 3 -9 -2 -14 -15
-14 -12 0 -23 -4 -26 -9 -4 -5 2 -7 13 -4 10 3 22 0 25 -6 5 -7 -4 -10 -26 -8
-18 2 -43 0 -55 -5 -14 -4 -23 -4 -23 3 0 6 -7 6 -17 1 -10 -5 -37 -7 -60 -6
-24 1 -43 -2 -43 -7 0 -6 -4 -7 -10 -4 -5 3 -10 2 -10 -3 0 -6 7 -13 16 -16
10 -4 13 -2 8 6 -5 7 -3 8 6 3 8 -5 11 -4 7 2 -3 5 0 10 8 10 8 0 12 -4 9 -8
-2 -4 2 -10 8 -12 10 -4 10 -6 0 -6 -7 -1 -10 -5 -7 -11 3 -5 1 -10 -4 -10 -6
0 -11 4 -11 9 0 8 -24 8 -40 0 -6 -3 -59 -6 -122 -8 -27 0 -48 -5 -48 -9 0 -5
14 -8 30 -7 17 1 27 -1 24 -4 -12 -12 -59 -7 -70 7 -9 12 -13 13 -19 2 -5 -9
-4 -11 3 -6 7 4 12 2 12 -3 0 -6 -8 -11 -17 -12 -11 0 -13 -3 -5 -6 6 -2 12
-9 12 -14 0 -6 -4 -7 -10 -4 -5 3 -10 1 -10 -5 0 -6 -5 -8 -10 -5 -6 4 -7 12
-4 18 5 9 4 9 -6 0 -7 -6 -18 -9 -25 -7 -7 3 -16 1 -20 -5 -3 -6 -11 -11 -16
-11 -6 0 -7 4 -4 10 3 6 -1 7 -10 4 -14 -6 -14 -9 1 -33 9 -14 11 -21 4 -14
-11 10 -16 9 -27 -5 -13 -15 -14 -15 -9 8 5 24 4 24 -9 6 -10 -13 -27 -19 -54
-19 -33 0 -39 -3 -36 -19 2 -10 0 -16 -6 -13 -5 4 -9 2 -9 -4 0 -5 6 -11 13
-14 6 -2 -15 -5 -48 -5 -33 -1 -61 -6 -63 -12 -2 -5 -8 -10 -13 -10 -6 0 -8 4
-5 8 2 4 -5 8 -18 8 -16 0 -22 -6 -22 -22 0 -13 4 -20 11 -16 18 11 45 12 45
1 0 -5 -4 -8 -9 -5 -5 4 -12 0 -14 -6 -4 -10 -6 -9 -6 1 -1 11 -4 11 -16 1 -8
-7 -28 -10 -44 -8 -17 2 -28 1 -26 -3 3 -4 -2 -9 -10 -13 -8 -3 -15 -11 -15
-18 0 -9 3 -9 10 2 5 8 11 12 14 9 11 -10 -11 -29 -27 -23 -9 3 -14 10 -11 15
3 5 0 9 -5 9 -14 0 -14 -13 -1 -26 8 -8 -1 -10 -29 -9 -22 1 -38 -2 -35 -6 2
-4 0 -10 -6 -14 -5 -3 -10 2 -11 12 0 10 -3 13 -5 6 -3 -7 -11 -10 -19 -7 -7
3 -16 0 -21 -7 -5 -8 -2 -11 7 -7 8 3 26 0 40 -8 13 -7 22 -14 19 -14 -3 -1
-17 -3 -32 -5 -16 -2 -38 -7 -49 -10 -14 -5 -19 -3 -15 3 3 6 -2 8 -12 5 -10
-2 -19 -11 -19 -18 0 -8 4 -12 8 -9 4 2 11 -1 15 -7 4 -7 3 -9 -3 -6 -6 4 -13
0 -16 -8 -4 -8 -17 -13 -34 -12 -21 1 -28 -2 -27 -15 1 -10 -2 -16 -6 -13 -5
3 -11 -1 -14 -7 -3 -7 -3 -3 0 9 4 19 2 23 -19 21 -16 -1 -23 -7 -20 -15 3 -7
9 -13 14 -13 5 0 9 -5 9 -11 0 -5 -4 -7 -10 -4 -5 3 -10 2 -10 -3 0 -5 -16 -8
-35 -7 -19 2 -32 -1 -29 -6 3 -5 1 -9 -5 -9 -5 0 -13 5 -16 10 -9 15 -24 3
-21 -17 2 -9 10 -17 19 -19 10 -1 15 2 11 7 -3 5 0 9 5 9 6 0 11 -7 11 -15 0
-9 -9 -13 -27 -12 -20 1 -27 -2 -25 -13 3 -12 1 -13 -9 -2 -7 6 -19 12 -27 12
-8 0 -10 -5 -6 -12 6 -9 3 -9 -9 0 -14 12 -15 11 -11 -12 5 -29 -2 -35 -45
-38 -17 -1 -31 -7 -31 -13 0 -5 -4 -4 -9 4 -6 9 -11 10 -15 2 -4 -6 -2 -11 4
-11 6 0 8 -5 5 -10 -4 -6 -11 -8 -16 -5 -5 3 -6 -1 -3 -9 5 -12 -1 -16 -25
-16 -26 0 -31 -4 -31 -24 0 -26 -20 -39 -45 -30 -8 4 -15 1 -15 -5 0 -7 -8 -7
-26 -1 -14 6 -23 6 -20 1 4 -5 0 -12 -6 -14 -7 -3 0 -4 17 -4 42 3 47 -29 5
-32 -67 -4 -78 -6 -74 -13 2 -3 -2 -8 -8 -11 -7 -3 4 -4 24 -2 21 1 35 -2 32
-7 -3 -5 -14 -6 -25 -3 -13 5 -19 2 -17 -7 2 -8 -8 -14 -24 -16 -16 -2 -28 -8
-28 -13 0 -6 4 -8 9 -4 5 3 12 1 15 -4 4 -5 -2 -8 -11 -7 -9 2 -19 8 -21 14
-2 7 -8 9 -13 6 -6 -3 -6 -10 -1 -17 5 -7 6 -21 1 -32 -4 -11 -8 -15 -8 -8 -2
21 -44 5 -47 -18 -1 -5 -2 -13 -3 -19 0 -5 -12 -10 -25 -10 -13 0 -30 -8 -37
-17 -8 -10 -9 -14 -2 -10 7 5 11 1 10 -11 0 -12 -10 -19 -26 -20 -14 -1 -32
-9 -40 -17 -13 -13 -12 -14 10 -10 22 4 22 3 7 -9 -10 -7 -14 -16 -10 -20 4
-5 -6 -6 -23 -4 -24 2 -30 -1 -31 -17 -1 -11 -3 -24 -4 -30 -1 -5 -2 -14 -1
-18 1 -5 -4 -5 -11 -1 -26 16 -45 11 -45 -13 0 -14 4 -20 11 -16 6 3 2 -3 -8
-15 -21 -24 -31 -29 -20 -9 5 7 0 6 -11 -3 -11 -9 -16 -10 -11 -2 4 6 2 12 -3
12 -10 0 -14 -13 -14 -52 0 -10 -5 -18 -11 -18 -6 0 -4 -5 4 -10 13 -8 13 -10
-1 -10 -9 0 -20 7 -23 16 -8 21 -26 8 -26 -19 0 -20 -5 -71 -8 -89 -1 -5 -7
-8 -13 -8 -5 0 -8 4 -4 9 3 6 -4 9 -15 8 -24 -2 -26 -13 -4 -21 15 -6 15 -8
-1 -26 -10 -11 -18 -32 -18 -47 0 -15 -2 -22 -4 -15 -3 6 -9 12 -14 12 -6 0
-7 -4 -4 -10 8 -13 -8 -13 -21 0 -7 7 -10 0 -9 -22 1 -18 -3 -41 -7 -50 -5
-10 -4 -19 2 -23 16 -10 1 -25 -17 -18 -12 5 -14 3 -8 -8 8 -12 6 -12 -8 0
-19 15 -23 26 -5 15 7 -4 8 -3 4 4 -5 8 -1 10 11 6 15 -6 15 -4 -2 10 -16 13
-17 15 -2 10 9 -3 17 -2 17 4 0 6 -8 9 -17 8 -10 -2 -18 -7 -18 -12 0 -5 -3
-13 -6 -19 -3 -5 -4 -31 -4 -57 1 -26 -2 -45 -6 -43 -4 3 -10 -2 -13 -11 -10
-25 -7 -27 12 -13 15 13 16 12 3 -4 -10 -12 -17 -15 -25 -7 -19 19 -26 10 -26
-31 0 -33 -3 -40 -16 -35 -8 3 -12 2 -9 -4 3 -6 1 -10 -4 -10 -6 0 -11 6 -11
13 0 8 -4 7 -10 -3 -15 -23 -12 -33 8 -25 30 11 34 10 37 -7 2 -10 -1 -18 -6
-18 -5 0 -9 5 -9 10 0 6 -5 10 -11 10 -5 0 -8 -4 -4 -9 3 -5 0 -13 -6 -17 -8
-5 -9 -3 -4 6 5 9 4 11 -3 6 -6 -4 -11 -21 -12 -39 0 -68 -4 -82 -25 -82 -25
0 -37 -16 -24 -31 6 -8 6 -14 0 -18 -5 -3 -8 -19 -7 -36 2 -29 -2 -33 -36 -33
-10 0 -15 -4 -12 -8 3 -5 10 -7 15 -4 5 4 9 0 9 -7 0 -11 2 -10 9 0 7 11 9 11
14 -1 4 -11 -2 -14 -23 -12 -26 2 -28 -1 -32 -36 -2 -22 0 -39 5 -39 4 0 6 -3
4 -8 -3 -4 -6 -27 -8 -52 -3 -47 -15 -74 -30 -65 -4 3 -6 13 -3 23 5 16 5 16
-6 0 -6 -11 -23 -18 -40 -18 -17 0 -30 -5 -30 -12 0 -9 -3 -10 -8 -2 -4 7 -47
12 -106 13 -54 0 -102 4 -107 7 -5 3 -9 1 -9 -5 0 -6 -7 -8 -15 -5 -8 4 -12
11 -8 18 5 8 3 8 -8 0 -21 -16 -82 -18 -73 -2 6 10 4 11 -7 1 -16 -16 -33 -17
-24 -2 4 6 -2 5 -14 -3 -17 -11 -25 -11 -42 0 -12 8 -18 9 -14 3 3 -6 1 -11
-4 -11 -6 0 -11 6 -11 13 0 8 -4 7 -10 -3 -9 -13 -11 -13 -20 0 -7 11 -5 17 8
22 14 7 14 7 -3 5 -11 -2 -19 -9 -18 -18 2 -12 -14 -15 -100 -15 -59 0 -105 5
-109 11 -5 7 -8 7 -8 0 0 -12 -99 -14 -117 -2 -6 4 -14 3 -17 -2 -7 -10 -31
-9 -42 2 -12 12 -26 8 -18 -5 5 -10 3 -9 -7 0 -12 11 -11 15 4 23 9 6 17 15
17 21 0 7 -5 6 -15 -2 -8 -7 -15 -8 -15 -3 0 5 -7 10 -15 10 -9 0 -11 -4 -6
-11 10 -14 10 -47 0 -40 -5 2 -6 11 -2 19 6 18 -13 20 -21 3 -3 -7 -4 -4 -1 7
4 19 0 20 -55 21 -46 1 -60 -2 -63 -15 -4 -13 -5 -13 -6 2 0 9 -4 17 -8 17 -3
0 -16 -8 -27 -17 -16 -14 -18 -15 -8 -2 11 15 6 17 -43 18 -32 0 -54 -3 -50
-8 3 -5 1 -13 -5 -16 -6 -4 -9 -1 -8 6 2 6 -3 14 -11 17 -9 3 -11 0 -7 -9 4
-8 0 -5 -8 5 -15 18 -21 15 -16 -9 1 -5 -4 -4 -11 3 -7 6 -38 12 -69 12 -58 0
-73 6 -78 29 -2 8 3 11 12 8 10 -4 13 -1 9 8 -3 8 -8 13 -12 11 -3 -2 -6 9 -6
25 -1 16 2 29 7 29 7 0 3 34 -6 49 -3 4 7 8 22 7 27 -1 27 0 30 72 2 53 6 71
15 66 9 -5 9 -3 -1 7 -18 20 -15 42 6 35 15 -5 15 -4 2 6 -8 7 -16 30 -16 51
-1 33 0 35 12 20 10 -14 15 -15 25 -6 14 14 20 75 7 67 -4 -3 -8 0 -8 6 0 6
-5 8 -10 5 -8 -5 -8 -11 0 -20 8 -9 7 -14 -4 -18 -20 -8 -31 10 -16 27 8 11 8
15 -2 19 -7 2 -9 8 -5 13 4 5 11 4 15 -2 4 -5 12 -10 19 -9 15 0 30 15 15 15
-7 0 -12 5 -12 11 0 5 6 7 13 3 7 -5 6 0 -3 11 -9 11 -10 16 -3 11 8 -4 13 -1
13 9 0 10 -5 14 -12 9 -10 -6 -10 -4 0 7 16 17 16 32 -1 23 -9 -6 -9 -4 -1 7
6 8 11 28 10 44 -1 26 -5 30 -29 29 -22 0 -27 4 -24 17 3 12 0 16 -9 12 -8 -3
-12 -9 -9 -14 7 -10 -36 -2 -48 10 -5 5 -4 12 4 16 8 5 10 4 5 -3 -4 -7 -3
-12 3 -12 5 0 13 5 16 10 4 6 10 8 15 5 5 -3 11 -1 14 3 3 5 -5 8 -17 8 -12
-1 -32 1 -44 6 -12 4 -25 3 -28 -2 -8 -13 -36 0 -29 14 3 6 -2 2 -10 -8 -15
-18 -21 -15 -16 9 1 6 -4 5 -10 -2 -9 -8 -18 -6 -36 9 -13 12 -22 24 -19 27 2
4 -12 7 -31 7 -19 0 -34 -4 -34 -8 0 -8 5 -10 40 -12 10 0 26 -8 35 -16 13
-14 13 -16 -4 -16 -11 0 -18 3 -15 7 2 4 -3 9 -11 13 -8 3 -19 -3 -24 -12 -6
-9 -11 -12 -11 -5 0 7 -7 10 -17 7 -13 -4 -14 -3 -5 3 7 5 10 17 6 26 -7 20
-15 21 -33 5 -11 -10 -13 -10 -7 0 11 19 -34 15 -58 -5 -20 -17 -20 -17 -7 0
13 16 6 17 -113 17 -99 0 -126 3 -120 13 6 10 4 10 -7 0 -7 -7 -25 -13 -41
-13 -15 0 -32 -8 -38 -17 -11 -17 -11 -17 -6 0 7 21 -12 23 -21 1 -3 -9 0 -20
7 -24 8 -5 9 -9 1 -11 -6 -2 -11 -30 -12 -62 -2 -48 -5 -57 -18 -52 -14 4 -14
4 -1 -7 16 -13 23 -91 8 -82 -4 3 -8 0 -8 -5 0 -6 4 -11 8 -11 10 0 9 -36 -1
-46 -3 -4 -2 -16 4 -27 8 -15 8 -18 -1 -12 -9 5 -10 1 -5 -16 5 -18 4 -21 -4
-9 -6 8 -8 23 -5 32 4 12 0 15 -16 11 -14 -4 -19 -13 -19 -32 1 -14 1 -59 0
-100 -1 -68 -2 -73 -18 -60 -17 13 -17 13 0 -7 30 -36 10 -99 -25 -77 -6 3 -8
1 -4 -5 3 -5 0 -13 -6 -15 -8 -3 -6 -6 5 -6 9 -1 17 -5 17 -11 0 -5 -8 -6 -17
-3 -17 7 -17 6 0 -11 21 -21 22 -27 2 -20 -8 4 -15 1 -15 -5 0 -6 6 -11 13
-11 7 0 8 -3 2 -8 -11 -8 -13 -28 -16 -182 -1 -58 -7 -111 -12 -117 -6 -9 -5
-13 4 -13 9 -1 8 -4 -4 -11 -10 -6 -21 -8 -24 -5 -4 3 -1 6 4 6 6 0 10 8 8 18
-2 9 -4 17 -5 17 -1 0 -3 8 -5 18 -2 9 1 17 7 17 6 0 7 -7 4 -16 -3 -8 -2 -12
4 -9 14 9 12 19 -9 43 l-18 22 1 -38 c1 -20 -3 -43 -9 -51 -7 -11 -7 -13 3 -7
14 9 15 5 3 -27 -9 -22 -7 -24 15 -24 13 0 21 3 19 8 -3 4 -1 10 4 13 5 4 8
-2 7 -11 -2 -10 -11 -18 -20 -18 -26 0 -32 -19 -31 -103 0 -43 -4 -80 -10 -84
-6 -5 -5 -8 4 -8 11 0 10 -4 -5 -16 -10 -8 -13 -13 -6 -9 12 6 15 -5 15 -57
-1 -24 2 -26 23 -18 15 6 26 5 30 -1 3 -6 14 -9 23 -6 11 3 17 -2 17 -14 0
-14 -3 -15 -13 -7 -8 6 -16 8 -20 4 -3 -3 0 -6 8 -6 11 0 11 -2 -1 -10 -10 -6
-11 -10 -2 -10 17 0 18 0 52 -10 19 -5 32 -5 36 2 4 7 10 5 16 -6 5 -9 14 -16
21 -16 8 0 7 3 -2 9 -9 6 -4 8 17 8 17 -1 29 -4 26 -6 -2 -2 4 -9 13 -16 14
-11 14 -12 -3 -10 -11 0 -24 4 -30 7 -5 4 -10 -1 -10 -10 0 -15 14 -17 104
-17 57 0 106 -3 109 -8 2 -4 16 -5 31 -2 14 2 32 -1 39 -7 10 -8 12 -7 8 5 -6
13 -1 14 29 7 20 -4 36 -4 36 0 0 4 12 5 26 2 21 -4 25 -2 19 9 -7 11 -6 12 6
3 20 -15 61 -16 52 -1 -4 7 1 6 11 -2 15 -13 17 -12 12 12 -5 28 -3 29 49 31
17 1 36 5 43 9 6 5 17 5 23 1 8 -4 8 -1 1 12 -5 11 -7 24 -5 31 2 6 -1 15 -8
19 -8 5 -9 3 -4 -6 6 -9 4 -11 -4 -5 -10 6 -11 3 -2 -13 7 -12 7 -23 2 -26 -5
-4 -11 -3 -14 1 -2 5 -2 2 0 -5 1 -7 -2 -10 -7 -7 -10 6 -8 40 3 51 4 4 2 13
-3 19 -8 9 -6 14 6 19 13 5 14 9 4 21 -7 8 -9 15 -4 15 5 0 3 4 -4 9 -11 7
-11 9 1 14 10 4 14 -1 13 -16 -1 -13 6 -23 17 -25 9 -2 17 2 17 8 0 6 -5 8
-12 4 -10 -6 -10 -4 -2 7 6 8 10 25 9 39 -1 14 3 31 9 39 8 11 8 13 0 8 -8 -4
-11 2 -10 17 0 13 4 22 9 19 4 -2 7 1 7 6 0 6 -5 11 -11 11 -5 0 -7 5 -4 11 4
6 7 26 7 46 0 22 3 31 8 23 4 -7 15 -10 25 -7 11 5 14 3 9 -6 -6 -9 -4 -9 7
-1 8 5 29 9 47 9 26 -1 32 2 27 14 -4 14 -4 14 7 1 15 -18 71 -23 61 -6 -4 6
0 5 9 -2 12 -9 18 -10 23 -2 4 6 12 7 18 2 17 -12 72 -8 72 5 0 6 3 15 7 19 4
3 6 -2 4 -13 -4 -17 1 -20 42 -21 30 0 41 3 31 9 -9 5 -10 9 -2 9 6 0 15 -5
18 -10 4 -6 11 -8 16 -4 5 3 7 9 4 14 -3 5 -1 11 4 15 6 3 8 -3 6 -13 -3 -16
3 -19 43 -20 30 0 41 3 31 9 -9 5 -10 9 -2 9 6 0 15 -5 18 -10 11 -17 23 -1
20 25 -2 24 -1 25 16 9 22 -20 24 -25 6 -18 -8 3 -14 -2 -14 -10 0 -10 9 -15
24 -14 16 2 22 7 18 18 -4 13 -4 13 7 0 15 -18 71 -23 61 -6 -4 6 0 5 9 -2 12
-9 18 -10 23 -2 4 6 12 7 18 2 7 -4 35 -8 62 -7 44 1 50 3 50 22 0 12 3 24 6
28 4 3 6 -7 4 -23 l-2 -28 63 -1 c44 0 61 3 57 11 -4 6 1 5 10 -3 9 -7 18 -11
18 -7 1 3 2 10 3 15 0 5 4 13 8 17 4 3 6 -2 3 -13 -3 -19 1 -20 53 -18 31 1
56 7 55 13 -1 5 6 17 15 25 16 15 18 15 19 -6 2 -17 0 -19 -7 -7 -5 8 -10 13
-11 10 0 -3 -2 -12 -4 -21 -2 -13 7 -16 43 -17 30 0 41 3 31 9 -8 5 -9 9 -3 9
6 0 14 -3 17 -7 12 -11 58 -13 51 -1 -4 6 1 6 14 -1 11 -6 29 -11 39 -11 15 0
16 2 3 10 -9 6 -10 10 -3 10 6 0 15 -5 18 -10 10 -16 24 -2 20 20 -3 13 1 17
12 13 8 -3 11 -9 6 -12 -4 -3 -9 -12 -10 -18 -3 -14 23 -13 46 1 10 6 12 5 7
-2 -4 -7 -2 -12 3 -12 6 0 11 5 11 10 0 6 5 10 11 10 5 0 7 -5 3 -11 -4 -7 -1
-10 7 -7 8 3 22 1 31 -4 12 -6 18 -5 18 3 0 7 3 9 7 6 3 -4 11 -3 17 2 8 7 11
-23 11 -109 0 -65 -3 -116 -7 -114 -12 8 -9 -11 3 -23 8 -8 7 -13 -1 -18 -6
-4 -17 -2 -23 4 -9 9 -7 10 8 5 20 -7 20 -7 1 14 -12 14 -14 22 -7 22 7 0 9 5
6 10 -4 6 -11 7 -17 4 -7 -4 -8 -2 -4 4 4 6 14 8 24 5 14 -6 15 -4 4 9 -8 10
-9 19 -3 22 5 4 9 15 8 26 -1 15 -4 17 -15 8 -11 -10 -13 -8 -10 8 1 10 10 24
18 31 8 6 12 15 7 19 -4 4 -7 2 -7 -4 0 -7 -4 -12 -10 -12 -5 0 -7 8 -3 18 3
9 3 14 -1 10 -12 -10 -16 -77 -5 -83 5 -4 9 -11 9 -17 0 -6 -7 -5 -18 3 -14
11 -15 11 -4 -1 13 -15 17 -34 4 -26 -4 2 -8 -8 -7 -24 0 -15 3 -26 6 -24 6 3
3 -54 -5 -113 -2 -14 1 -20 11 -16 7 3 13 0 13 -6 0 -6 -6 -11 -12 -11 -9 0
-13 -20 -12 -68 2 -98 2 -100 14 -82 8 12 10 12 10 1 0 -8 -8 -20 -17 -27 -17
-13 -17 -14 1 -7 12 4 17 3 13 -4 -4 -6 0 -16 8 -23 10 -9 15 -9 15 -1 0 6 -4
11 -8 11 -5 0 -9 7 -9 15 0 8 3 15 7 15 4 0 7 7 7 15 0 8 -5 15 -11 15 -6 0
-4 5 4 10 11 7 12 10 2 10 -9 0 -11 7 -7 20 5 16 3 19 -12 14 -17 -5 -17 -5
-1 6 10 6 21 17 25 25 5 8 8 -37 8 -100 1 -70 -3 -111 -9 -108 -5 4 -7 -1 -3
-10 3 -10 2 -17 -3 -17 -13 0 -8 50 5 50 5 0 2 5 -8 11 -10 6 -21 8 -24 5 -4
-3 -1 -6 6 -6 7 0 9 -5 6 -10 -4 -6 -11 -8 -16 -4 -5 3 -8 0 -7 -8 2 -8 -7
-13 -24 -12 -15 1 -25 -2 -23 -7 3 -4 16 -6 30 -4 19 2 25 -2 25 -17 0 -13 4
-17 13 -12 6 4 9 4 5 -1 -4 -4 -39 -9 -78 -10 -67 -2 -112 -14 -59 -16 l24 0
-22 -9 c-13 -5 -23 -12 -23 -15 0 -4 5 -3 10 0 5 3 10 2 10 -4 0 -5 -17 -11
-37 -13 -22 -2 -38 -9 -40 -18 -4 -13 -3 -13 6 0 9 13 11 13 11 -2 0 -10 -6
-18 -12 -18 -9 0 -8 -4 2 -11 12 -8 12 -10 -5 -8 -11 1 -26 1 -32 0 -16 -1
-17 -31 -2 -31 6 0 4 -7 -5 -15 -19 -20 -27 -19 -19 1 4 12 -2 10 -21 -7 -14
-12 -23 -25 -19 -28 12 -9 14 -31 4 -31 -5 0 -8 -12 -6 -27 3 -33 -13 -47 -35
-30 -13 11 -13 10 0 -7 13 -18 13 -19 -1 -14 -13 5 -15 -6 -15 -72 1 -45 5
-78 11 -77 5 1 11 -9 13 -22 3 -16 0 -21 -9 -16 -8 5 -10 4 -5 -4 10 -16 23
-6 28 24 3 13 2 22 -2 20 -4 -2 -7 2 -7 10 0 8 5 11 11 8 6 -4 7 -2 3 3 -5 5
-13 10 -18 10 -5 1 -12 2 -16 3 -4 0 2 8 13 17 10 8 14 13 7 10 -7 -4 -10 1
-8 11 2 10 4 22 4 26 1 5 7 5 14 1 8 -5 8 -3 -2 9 -7 9 -17 14 -22 11 -5 -3
-9 -1 -9 4 0 5 12 14 27 21 22 10 24 10 15 -1 -7 -9 -8 -19 -2 -28 14 -22 12
-30 -6 -30 -8 0 -12 -5 -9 -10 4 -6 12 -7 18 -3 8 5 8 2 0 -9 -7 -8 -10 -18
-6 -22 4 -4 8 -33 8 -66 0 -33 4 -62 8 -66 3 -4 2 -15 -3 -24 -12 -22 9 -43
33 -34 8 3 18 0 23 -7 4 -7 3 -10 -4 -5 -6 3 -13 2 -17 -4 -3 -5 3 -10 14 -10
12 0 21 -5 21 -11 0 -8 4 -8 14 0 10 9 15 8 19 -2 4 -11 -2 -13 -25 -11 -25 3
-28 1 -19 -10 9 -11 9 -15 -1 -18 -12 -4 53 -10 95 -10 13 1 16 -5 13 -22 -2
-13 -1 -27 2 -32 9 -12 72 -12 72 1 0 5 8 -2 17 -15 10 -14 18 -28 18 -32 0
-3 4 -10 9 -15 5 -4 7 -3 3 2 -3 6 4 17 16 24 18 11 20 11 10 0 -7 -7 -13 -16
-13 -19 0 -9 57 -7 66 2 4 4 21 -2 38 -14 22 -16 27 -17 17 -5 -12 15 -11 17
2 17 9 0 19 -5 22 -10 4 -7 11 -7 18 -2 7 5 24 8 39 7 15 -1 25 1 23 6 -3 4 2
9 10 12 10 4 12 1 8 -11 -6 -15 -5 -16 12 -2 11 9 16 10 11 3 -4 -8 -1 -13 9
-13 9 0 14 4 11 8 -3 5 1 9 9 9 8 0 11 -5 8 -10 -4 -6 0 -8 9 -5 12 5 15 -4
17 -40 2 -26 3 -52 4 -58 0 -6 6 -11 13 -11 7 0 11 4 8 8 -2 4 -1 9 3 12 5 2
2 2 -5 0 -8 -2 -12 4 -10 15 3 17 29 25 27 8 0 -5 5 -13 13 -17 10 -7 10 -9 0
-9 -9 0 -10 -6 -4 -17 4 -10 7 -28 6 -41 -1 -15 4 -21 15 -20 9 2 19 7 22 11
4 5 11 -5 17 -22 6 -18 7 -29 3 -26 -5 3 -7 -4 -4 -16 4 -16 8 -17 14 -7 6 8
9 9 9 2 0 -7 7 -15 16 -18 13 -5 14 -4 6 7 -9 10 -9 14 1 14 7 0 14 -14 15
-31 5 -77 7 -81 29 -82 12 -1 20 2 17 7 -2 4 -10 7 -17 5 -7 -1 -8 -1 -4 2 4
2 3 10 -3 17 -7 8 -7 15 -1 19 5 4 12 2 16 -4 3 -5 3 -10 -1 -10 -4 0 1 -9 10
-19 10 -11 15 -25 11 -30 -3 -6 -1 -11 4 -11 6 0 11 -5 11 -11 0 -5 -4 -8 -8
-5 -5 3 -9 -1 -9 -9 0 -15 18 -16 29 -1 10 15 35 -18 32 -42 -4 -22 4 -26 39
-23 13 2 17 -5 17 -28 0 -25 4 -30 27 -33 21 -2 29 -10 33 -29 4 -20 11 -26
31 -25 23 1 26 -2 24 -26 -3 -27 3 -32 37 -29 9 1 20 -3 24 -10 5 -8 3 -9 -7
-4 -12 8 -12 6 -1 -8 8 -9 11 -21 7 -27 -3 -5 1 -10 11 -10 11 0 15 6 11 20
-3 11 -1 18 4 14 5 -3 9 -12 9 -20 0 -14 8 -17 43 -17 14 0 15 -2 6 -14 -9
-11 -9 -12 4 -8 8 4 18 2 21 -3 3 -5 -6 -9 -20 -9 -19 0 -24 4 -20 16 5 12 2
11 -9 -3 -18 -23 -11 -36 16 -31 27 5 50 -5 42 -19 -3 -6 -1 -6 8 2 23 21 39
14 39 -18 0 -26 3 -29 28 -27 24 2 27 -2 30 -32 l3 -33 24 22 c14 13 22 27 18
33 -4 6 -1 7 6 3 9 -6 9 -12 -3 -25 -17 -19 -12 -33 9 -25 7 3 16 0 20 -6 5
-8 11 -7 23 2 10 8 13 9 9 1 -4 -6 -3 -14 3 -18 6 -4 8 -11 4 -16 -3 -6 -12
-5 -22 3 -13 11 -14 11 -7 -1 5 -10 4 -12 -4 -7 -6 4 -9 11 -6 16 3 5 2 11 -3
14 -4 2 -9 -5 -10 -18 -2 -23 0 -23 103 -27 17 -1 24 -4 18 -6 -7 -3 -13 -9
-13 -14 0 -6 6 -7 13 -3 9 6 9 4 0 -7 -16 -16 -17 -29 -2 -29 5 0 7 6 3 13 -6
9 -4 9 8 -1 14 -11 18 -10 27 5 11 17 11 17 9 -2 -2 -16 2 -19 20 -17 13 1 31
-2 40 -8 11 -6 12 -9 4 -10 -7 0 -10 -4 -7 -10 4 -6 -7 -8 -27 -5 -29 4 -30 4
-8 -4 14 -5 42 -9 63 -10 34 -1 38 -3 32 -21 -4 -12 -2 -20 5 -20 6 0 9 -4 6
-9 -3 -4 2 -8 12 -8 100 0 108 -2 126 -35 9 -18 14 -24 11 -13 -11 35 -10 37
15 41 22 4 23 3 7 -8 -11 -9 -16 -20 -11 -31 5 -13 18 -17 60 -17 38 0 53 -4
51 -12 -1 -7 -9 -16 -17 -20 -11 -5 -8 -7 8 -7 13 -1 21 -4 19 -8 -3 -5 12 -9
34 -10 21 -2 41 2 44 7 4 6 16 3 31 -6 13 -9 24 -12 24 -8 0 12 20 -18 20 -30
0 -5 -9 -1 -20 9 -11 10 -20 16 -21 14 0 -2 -2 -11 -4 -19 -2 -15 15 -19 100
-21 10 0 26 -5 34 -12 10 -8 13 -8 8 -1 -5 9 8 11 43 10 27 0 50 -4 50 -8 0
-5 -5 -8 -12 -8 -6 0 -8 -3 -5 -7 4 -3 3 -11 -3 -18 -7 -8 14 -12 83 -14 149
-5 162 -6 158 -16 -2 -6 -6 -16 -9 -23 -4 -11 -6 -11 -13 -1 -4 8 -11 10 -16
6 -15 -16 17 -22 116 -22 61 0 101 -4 101 -10 0 -5 5 -3 10 5 7 12 10 12 10 1
0 -7 6 -11 14 -8 7 3 19 0 26 -6 10 -9 11 -9 6 1 -8 14 10 17 18 3 7 -10 25
-9 44 3 7 4 19 3 25 -3 20 -16 777 -15 777 1 0 9 3 8 10 -2 8 -12 13 -13 30
-2 22 14 44 16 36 4 -2 -4 6 -8 19 -8 13 0 21 4 19 8 -3 4 5 8 18 8 19 0 20
-2 8 -11 -12 -9 -12 -10 3 -5 10 3 21 6 23 6 3 0 3 4 0 9 -6 9 42 6 71 -4 7
-2 15 -1 17 4 3 4 34 7 71 6 44 -1 69 3 76 12 6 7 16 13 21 13 6 0 5 -7 -2
-15 -7 -9 -8 -15 -2 -15 13 0 22 24 14 36 -9 12 -35 17 -28 5 3 -5 0 -14 -8
-20 -10 -9 -15 -8 -20 4 -4 11 -2 14 6 9 7 -5 9 -2 6 7 -5 12 7 15 63 16 39 0
72 3 75 6 3 3 18 3 33 1 20 -4 30 0 35 12 5 13 3 14 -6 6 -9 -7 -19 -6 -32 4
-11 8 -14 14 -7 14 7 0 9 4 6 10 -3 6 1 7 9 4 9 -3 16 -10 16 -15 0 -5 6 -8
13 -6 6 1 11 -5 11 -14 -1 -12 4 -15 18 -11 18 4 18 6 4 14 -9 5 -16 17 -16
26 1 15 3 14 17 -3 14 -18 15 -18 9 -1 -5 14 -2 17 9 12 8 -3 15 0 15 7 0 8 2
9 8 1 10 -16 58 -10 54 6 -3 11 0 11 12 1 8 -7 24 -10 36 -6 22 7 26 20 8 31
-7 5 -8 3 -3 -7 8 -12 6 -12 -8 0 -10 8 -16 15 -14 17 2 2 29 4 60 5 38 1 54
6 50 13 -4 6 1 5 10 -3 9 -7 18 -11 18 -7 5 23 4 32 -3 42 -5 7 3 10 22 10 16
0 26 -4 23 -8 -3 -5 -11 -7 -18 -4 -9 3 -12 -2 -10 -16 3 -11 7 -23 11 -27 4
-3 4 2 1 12 -4 9 -2 17 3 17 5 0 14 -8 19 -17 9 -16 10 -16 11 -1 0 9 -6 19
-12 21 -10 4 -10 6 0 6 6 1 12 7 12 14 0 8 18 12 58 12 58 0 72 12 49 42 -13
17 24 17 42 1 11 -10 13 -10 7 0 -5 7 -1 12 9 12 11 0 15 5 11 16 -3 8 -2 12
3 9 5 -3 12 -1 16 5 3 5 -2 10 -12 11 -16 0 -16 1 2 8 27 11 39 3 23 -17 -11
-13 -11 -14 1 -7 10 5 12 4 7 -4 -4 -6 -12 -9 -17 -6 -5 4 -9 2 -9 -4 0 -5 8
-9 19 -8 10 0 18 8 18 17 0 35 4 38 42 36 28 -1 37 3 34 12 -3 7 -2 12 3 11
20 -3 35 2 29 10 -7 12 4 19 46 26 19 3 39 11 44 16 7 7 4 8 -7 4 -14 -6 -18
-2 -18 14 0 17 6 21 31 21 16 0 28 4 24 9 -3 5 -1 12 5 16 6 4 8 10 5 15 -3 5
-1 12 5 15 6 4 10 3 9 -2 -4 -21 2 -25 14 -10 6 9 27 18 46 20 19 1 37 9 39
16 3 8 0 11 -5 8 -5 -3 -10 0 -10 8 0 7 13 15 29 17 15 3 28 1 28 -4 0 -5 5
-6 10 -3 6 4 7 11 4 17 -5 8 -1 9 12 5 18 -7 18 -6 2 7 -10 7 -18 19 -18 27 0
11 2 11 10 -1 6 -10 10 -11 10 -2 0 6 4 12 10 12 5 0 7 -6 4 -14 -7 -18 12
-30 22 -15 4 8 3 9 -4 5 -7 -4 -12 -4 -12 1 1 19 17 30 41 29 16 -1 26 3 25
11 -3 16 -16 30 -16 16 0 -5 -6 -10 -14 -10 -16 0 -15 29 1 34 6 2 14 -1 18
-6 3 -6 11 -11 16 -11 6 0 8 4 4 9 -3 5 7 11 22 13 19 2 29 10 31 23 2 16 1
17 -7 5 -8 -12 -10 -11 -9 6 1 14 9 21 23 21 52 1 55 3 55 33 0 17 5 30 11 30
5 0 7 -6 3 -12 -5 -10 -4 -10 6 -1 7 6 18 9 26 6 9 -3 12 2 9 14 -3 20 7 45
19 44 36 -5 43 0 41 28 -2 25 1 30 19 29 38 -1 44 2 39 21 -3 13 -11 18 -21
15 -11 -4 -10 -1 3 7 25 17 38 18 47 4 5 -6 8 -5 8 3 0 7 5 10 10 7 6 -3 10 1
10 10 0 10 -5 13 -12 9 -10 -6 -10 -5 -1 8 7 8 10 18 6 21 -3 4 5 7 18 8 23 0
23 1 4 10 -15 7 -12 8 15 4 33 -4 34 -4 16 10 -18 14 -18 15 -2 15 9 0 15 4
12 9 -4 5 0 11 6 14 10 3 10 7 1 18 -8 10 -9 20 -3 29 7 10 10 11 10 3 0 -7 5
-13 11 -13 5 0 7 6 3 13 -4 6 -3 8 1 4 14 -12 14 -36 2 -33 -7 2 -9 1 -4 -1 4
-3 4 -9 1 -15 -4 -6 -1 -9 7 -6 8 3 15 15 15 27 1 13 8 27 15 32 9 5 10 9 2 9
-12 0 -12 17 0 38 6 9 13 9 28 2 10 -6 19 -7 18 -3 -1 4 -1 24 0 43 1 27 4 31
11 20 7 -11 10 -11 10 -2 0 7 5 10 10 7 6 -3 15 -3 22 1 8 5 6 10 -8 15 -16 6
-16 8 -2 8 11 1 15 6 12 15 -3 8 -1 17 5 20 5 4 8 17 5 29 -3 19 1 23 24 22
20 0 27 5 28 20 1 11 2 26 3 33 1 9 8 11 21 7 12 -4 28 -1 37 7 9 7 14 8 10 2
-6 -11 32 -15 131 -16 32 0 42 -11 20 -24 -7 -5 -9 -2 -4 7 4 8 0 5 -10 -6
l-17 -20 7 20 c6 16 5 18 -5 7 -11 -10 -10 -16 5 -30 11 -10 15 -11 11 -3 -6
11 -4 13 8 8 10 -4 16 -2 14 5 -1 7 7 13 18 15 11 1 14 0 8 -3 -7 -3 -13 -11
-13 -16 0 -6 3 -8 7 -5 3 4 12 2 20 -4 8 -8 13 -8 13 -1 0 11 18 11 37 -1 6
-4 15 -2 19 4 5 8 3 9 -6 4 -8 -5 -11 -3 -8 5 2 7 12 14 22 16 11 2 16 -2 12
-11 -3 -9 0 -12 10 -8 7 3 14 0 14 -7 0 -6 5 -8 11 -4 8 5 8 9 -1 14 -6 4 -11
11 -11 16 0 5 -13 9 -29 8 -17 0 -30 3 -30 7 0 4 25 6 55 5 30 0 55 2 55 6 0
4 7 5 16 1 9 -3 20 0 25 8 7 11 9 9 9 -6 0 -12 3 -16 8 -9 4 6 20 10 35 10 36
-2 56 28 30 44 -14 8 -14 10 -3 9 8 -1 30 -1 48 0 27 1 32 4 28 19 -3 9 -2 22
2 27 10 14 32 17 32 5 0 -6 -7 -10 -15 -10 -8 0 -15 -4 -15 -10 0 -6 10 -5 25
2 22 10 30 26 26 52 -2 11 32 35 42 29 4 -3 3 -10 -2 -17 -6 -7 -7 -17 -3 -21
4 -5 2 -5 -5 -1 -6 3 -14 2 -18 -4 -8 -13 15 -13 35 0 12 8 12 10 1 10 -11 0
-11 3 -1 15 7 9 13 31 12 48 -1 26 3 33 18 34 11 1 20 -2 20 -8 0 -5 -7 -9
-15 -9 -8 0 -15 -5 -15 -11 0 -8 8 -6 22 3 21 14 33 68 15 68 -5 0 -5 6 1 13
6 6 9 33 8 60 -2 49 2 55 22 35 9 -9 15 -9 25 1 8 9 8 12 0 7 -6 -3 -18 0 -26
8 -8 8 -16 13 -19 11 -2 -2 -4 4 -4 14 0 11 6 17 16 16 8 -2 18 -4 23 -4 4 -1
7 -6 7 -12 0 -8 -5 -8 -15 1 -10 9 -15 9 -15 1 0 -6 5 -11 10 -11 6 0 13 -1
18 -2 4 -2 7 9 7 24 1 18 -3 24 -10 19 -5 -5 -19 -5 -29 -2 -17 7 -18 8 -3 14
9 3 17 12 16 19 0 10 -2 10 -6 1 -11 -28 -18 -10 -18 47 0 61 -16 85 -39 59
-8 -9 -7 -11 5 -6 9 3 16 0 16 -7 0 -6 -8 -12 -16 -12 -12 0 -16 11 -17 39 -1
22 -7 43 -15 48 -10 6 -10 9 -1 9 6 0 12 5 12 11 0 5 -4 7 -10 4 -5 -3 -10 -1
-10 6 0 8 -3 9 -13 0 -18 -14 -27 -4 -27 30 0 29 -21 44 -39 26 -8 -8 -11 -7
-11 4 0 12 -2 12 -9 0 -7 -11 -10 -9 -16 8 -3 12 -11 19 -16 15 -5 -3 -7 -10
-4 -15 3 -5 -1 -6 -10 -2 -12 4 -13 8 -5 13 9 6 9 9 -1 13 -8 3 -5 5 6 4 11
-2 25 -6 32 -10 6 -4 14 -3 18 3 6 10 -7 17 -35 19 -8 1 -36 2 -63 4 -35 1
-46 5 -42 15 3 8 5 17 5 20 0 4 5 0 10 -8 7 -12 9 -11 8 6 -1 11 -8 21 -15 21
-6 0 -10 -4 -7 -9 3 -4 1 -8 -5 -8 -5 0 -12 4 -16 10 -3 5 -21 8 -40 6 -24 -1
-35 2 -35 11 0 7 -5 13 -11 13 -5 0 -7 -5 -3 -12 4 -6 3 -8 -4 -4 -5 3 -13 0
-15 -6 -4 -10 -6 -10 -6 0 -1 7 -6 10 -13 6 -7 -4 -8 -3 -4 5 4 6 11 9 16 6 4
-3 11 2 14 11 3 8 11 12 17 8 8 -4 9 -3 5 5 -4 6 -12 8 -18 5 -7 -4 -8 -2 -4
4 4 7 13 12 21 12 16 0 8 40 -9 41 -6 0 -2 4 9 9 11 5 14 9 7 9 -10 1 -10 6
-2 21 8 14 8 20 0 20 -7 0 -8 7 -3 18 5 9 8 37 8 62 0 28 6 51 15 60 9 8 11
12 6 7 -15 -11 -23 -9 -23 8 0 8 5 11 10 8 6 -4 7 -1 1 8 -15 23 -12 69 4 69
12 0 12 -3 1 -17 -13 -16 -12 -17 4 -4 10 8 17 9 17 3 0 -6 -8 -16 -17 -21
-10 -6 -13 -11 -8 -11 6 -1 18 -3 29 -5 13 -3 15 0 8 7 -6 6 -8 16 -6 23 3 7
-5 20 -17 29 -25 17 -33 56 -12 56 8 0 11 -5 7 -11 -4 -7 1 -7 16 1 21 11 21
12 3 32 -14 17 -14 20 -3 16 13 -5 15 5 15 61 0 56 -3 66 -19 69 -11 3 -16 0
-11 -7 3 -6 11 -9 16 -6 5 4 9 2 9 -3 0 -8 -22 -22 -34 -22 -4 0 -8 94 -11
270 -1 85 -6 162 -9 171 -4 10 -3 20 3 24 7 4 8 13 2 23 -5 9 -7 27 -5 39 5
28 -10 38 -26 18 -10 -12 -9 -16 4 -21 13 -5 13 -8 1 -20 -20 -20 -23 -18 -23
19 -1 104 -5 156 -13 151 -5 -3 -9 0 -9 5 0 6 5 11 10 11 6 0 10 5 10 11 0 5
-4 7 -10 4 -5 -3 -10 -1 -10 4 0 6 6 11 13 11 7 0 8 3 2 8 -15 11 -19 46 -4
36 8 -4 10 -3 5 5 -11 18 -27 2 -22 -22 3 -16 -1 -23 -13 -23 -9 0 -18 8 -18
18 -1 10 2 18 8 18 5 0 9 8 9 18 0 14 -2 15 -10 2 -9 -15 -14 22 -12 103 1 24
-2 26 -14 16 -8 -6 -14 -8 -14 -3 0 5 -5 2 -10 -6 -9 -13 -10 -13 -11 0 -1 8
-3 25 -4 37 -1 12 2 20 6 17 5 -3 9 0 9 5 0 6 -5 11 -10 11 -6 0 -10 6 -9 13
4 31 -2 67 -11 67 -5 0 -7 -8 -4 -17 5 -14 4 -15 -4 -4 -8 11 -10 11 -15 0 -3
-9 -6 -10 -6 -2 -1 6 4 15 9 18 17 10 11 33 -9 40 -11 3 -18 13 -16 23 1 9 -3
23 -9 31 -7 10 -7 13 0 8 7 -4 9 5 6 26 -4 28 -6 30 -14 12 -7 -17 -8 -15 -5
7 2 15 0 25 -4 22 -5 -3 -9 -13 -10 -22 0 -11 -2 -12 -6 -4 -2 6 -9 9 -15 6
-6 -4 -6 1 1 13 8 15 6 26 -6 43 -9 13 -12 20 -6 17 7 -4 10 4 9 22 0 19 -5
27 -13 24 -7 -3 -10 -10 -6 -17 4 -7 1 -7 -9 1 -8 7 -18 9 -23 5 -4 -4 -6 0
-3 8 3 8 14 14 24 12 15 -2 16 -1 4 7 -8 5 -17 8 -21 5 -10 -6 -17 39 -9 62 6
16 2 20 -24 24 -25 4 -31 10 -31 30 1 14 -6 30 -15 37 -19 16 -33 16 -24 1 5
-7 3 -8 -5 -3 -9 5 -10 10 -2 18 7 7 15 6 26 -3 12 -10 15 -10 15 4 0 9 -6 16
-12 16 -9 0 -8 3 2 10 12 7 10 9 -7 7 -12 0 -19 -5 -17 -9 3 -4 0 -8 -5 -8 -6
0 -12 14 -12 30 -1 28 -3 40 -9 58 -1 4 -2 11 -1 16 3 13 -20 36 -30 31 -4 -3
-6 -12 -2 -20 3 -8 1 -15 -4 -15 -9 0 -12 17 -16 79 -1 19 -8 35 -15 37 -7 1
-8 0 -2 -3 8 -3 7 -9 -1 -19 -9 -11 -13 -11 -24 -1 -11 12 -15 33 -16 90 0 19
-24 23 -35 5 -5 -7 -2 -8 7 -3 8 5 11 5 7 0 -4 -4 -3 -14 3 -21 7 -9 6 -12 -6
-10 -8 1 -15 6 -14 11 0 4 -5 12 -13 16 -10 7 -10 9 0 9 7 0 10 5 7 10 -4 6
-11 7 -17 4 -7 -4 -8 -2 -4 4 15 24 14 51 -2 64 -12 10 -14 10 -8 1 5 -9 -1
-13 -21 -12 -15 0 -23 3 -16 5 8 4 9 14 2 36 -4 17 -6 34 -3 39 5 8 -36 35
-48 31 -5 -1 -8 11 -8 27 0 16 -6 31 -15 35 -8 3 -15 1 -15 -4 0 -5 -7 -7 -16
-3 -9 3 -14 13 -11 24 3 11 1 22 -4 25 -5 3 -7 9 -4 14 3 4 -4 6 -15 3 -11 -3
-17 -10 -13 -17 4 -6 -1 -5 -10 3 -9 7 -14 18 -11 23 4 6 0 14 -7 19 -10 6
-11 9 -1 9 6 0 12 4 12 10 0 5 -14 8 -30 6 -24 -3 -30 0 -29 13 4 42 -1 48
-32 45 -16 -2 -27 0 -24 5 3 5 1 12 -4 15 -5 3 -7 14 -4 24 4 16 0 18 -27 14
-31 -4 -31 -3 -27 27 5 27 3 30 -9 20 -11 -9 -14 -9 -14 0 0 7 -4 10 -9 6 -12
-7 -21 7 -23 37 -2 18 -8 24 -23 23 -27 -3 -46 5 -39 16 3 5 0 9 -5 9 -6 0
-11 5 -11 11 0 5 5 7 10 4 6 -3 10 1 10 10 0 12 -4 14 -16 7 -9 -5 -25 -7 -36
-4 -15 4 -16 7 -6 20 11 13 10 15 -5 9 -10 -4 -21 -7 -23 -7 -3 0 -2 -4 1 -10
3 -6 -1 -7 -9 -4 -10 4 -14 15 -12 30 3 14 0 25 -7 25 -34 4 -53 6 -61 7 -5 1
-3 8 4 16 13 17 43 10 33 -8 -4 -6 1 -5 10 3 22 18 12 32 -19 27 -15 -3 -24 0
-24 8 0 7 -7 13 -15 13 -8 0 -15 -4 -15 -8 0 -5 -7 -6 -15 -3 -8 4 -15 18 -15
33 0 20 -5 27 -20 27 -11 0 -20 -4 -20 -9 0 -4 -5 -5 -11 -1 -6 3 -9 19 -7 35
3 22 1 29 -12 29 -9 0 -22 -6 -29 -12 -10 -11 -12 -10 -9 1 2 10 -7 15 -27 15
-26 1 -30 5 -28 29 2 26 -1 28 -30 25 -25 -2 -32 1 -31 15 1 9 -2 17 -7 17 -5
0 -6 6 -3 13 3 8 -2 14 -11 14 -8 0 -15 -4 -15 -9 0 -5 -5 -6 -11 -3 -6 4 -8
13 -5 21 3 8 2 13 -2 13 -19 -3 -23 2 -13 15 12 14 6 16 -76 18 -27 0 -32 5
-35 27 -2 21 -9 27 -36 29 -18 2 -30 8 -27 13 6 8 -1 10 -22 8 -4 0 -10 8 -14
18 -4 13 -16 18 -40 18 -23 0 -34 5 -34 15 0 8 -4 18 -9 22 -11 8 -51 -11 -42
-19 3 -3 12 0 21 7 12 10 15 10 15 -2 0 -13 -24 -17 -49 -9 -2 0 4 11 15 23
10 12 14 18 7 15 -6 -4 -14 -4 -17 1 -3 5 -19 7 -35 6 -17 -1 -28 2 -25 7 3 5
0 9 -5 9 -6 0 -11 -6 -11 -12 0 -10 -3 -9 -9 1 -7 11 -9 11 -13 0 -3 -8 -7 -2
-10 13 -3 17 -1 25 5 21 16 -10 58 -12 52 -3 -3 5 -13 6 -22 3 -10 -4 -14 -2
-10 4 4 6 -5 10 -21 9 -15 -1 -33 3 -41 9 -12 8 -13 6 -8 -10 6 -16 3 -15 -14
5 -11 14 -18 19 -14 13 4 -8 0 -13 -10 -13 -10 0 -13 5 -9 13 5 8 2 8 -9 -2
-18 -14 -21 -9 -18 29 1 12 -12 16 -56 18 -61 3 -75 8 -54 21 10 6 9 10 -4 15
-9 3 -13 11 -10 18 4 7 -1 4 -10 -7 -13 -17 -17 -17 -25 -6 -4 8 -18 15 -29
16 -11 1 -18 -2 -15 -7 3 -4 0 -8 -5 -8 -6 0 -11 4 -11 9 0 10 -19 9 -38 -2
-7 -5 -14 -3 -17 5 -5 13 -63 17 -83 4 -6 -3 -14 -2 -17 4 -4 6 -16 8 -28 4
-15 -4 -19 -3 -12 4 12 13 68 24 61 13 -3 -4 1 -8 9 -8 8 0 12 4 9 9 -3 5 7 6
23 3 l28 -5 -25 11 c-14 6 -49 13 -78 15 -45 2 -52 0 -41 -12 6 -8 7 -14 3
-14 -5 0 -15 9 -22 20 -7 11 -17 20 -23 20 -5 0 -8 -4 -5 -9 3 -4 -11 -5 -32
-2 -20 4 -81 7 -134 6 -92 0 -97 1 -101 22 -4 19 0 21 32 18 20 -1 38 -4 41
-5 3 -1 9 -2 14 -1 5 1 5 -6 2 -16 -6 -14 -4 -15 5 -6 12 12 3 37 -11 28 -5
-3 -11 -1 -14 3 -7 12 -106 9 -107 -3 0 -5 5 -11 12 -14 8 -2 9 1 4 10 -5 8
-4 10 0 6 5 -4 10 -14 11 -21 2 -17 -42 -14 -59 3 -9 9 -8 11 4 6 10 -4 16 -1
16 8 0 9 -12 14 -29 15 -17 0 -26 -3 -22 -10 4 -7 0 -7 -13 1 -14 7 -24 7 -33
-2 -9 -9 -11 -9 -6 0 5 9 -21 11 -99 10 -58 -1 -105 -4 -105 -6z m73 -10 c4 0
7 -6 7 -12 0 -5 -5 -7 -12 -3 -7 5 -9 2 -6 -7 4 -9 -2 -14 -18 -15 -20 -2 -21
0 -9 13 17 16 20 27 6 18 -5 -3 -12 -1 -15 3 -5 8 13 9 47 3z m44 -16 c0 -8
-4 -15 -9 -15 -4 0 -8 7 -8 15 0 8 4 15 8 15 5 0 9 -7 9 -15z m856 -122 c-6
-15 -70 -13 -70 2 0 6 17 10 38 11 27 0 36 -3 32 -13z m107 -34 c0 -5 -4 -7
-10 -4 -17 10 -11 -7 6 -20 15 -10 15 -12 1 -12 -18 0 -30 23 -21 38 7 12 24
11 24 -2z m111 -82 c-10 -9 -11 -8 -5 6 3 10 9 15 12 12 3 -3 0 -11 -7 -18z
m224 -96 c3 -5 2 -12 -3 -15 -5 -3 -9 1 -9 9 0 17 3 19 12 6z m65 -23 c0 -4
-7 -8 -15 -8 -8 0 -15 4 -15 8 0 5 7 9 15 9 8 0 15 -4 15 -9z m158 -95 c-8
-10 -7 -12 5 -8 8 4 18 2 21 -3 3 -5 -5 -9 -18 -9 -17 0 -24 5 -23 17 0 9 7
17 14 17 10 0 10 -4 1 -14z m-1673 -173 c3 -17 1 -19 -9 -11 -7 6 -16 7 -21 3
-4 -4 -2 3 6 15 15 25 18 24 24 -7z m42 8 c-3 -8 -6 -5 -6 6 -1 11 2 17 5 13
3 -3 4 -12 1 -19z m30 15 c-4 -3 -2 -11 3 -18 7 -8 5 -12 -4 -12 -8 0 -12 7
-11 16 5 22 4 21 12 21 3 0 3 -3 0 -7z m1848 -23 c-3 -5 -14 -10 -23 -9 -14 0
-13 2 3 9 27 11 27 11 20 0z m-1525 -34 c0 -3 -4 -8 -10 -11 -5 -3 -10 -1 -10
4 0 6 5 11 10 11 6 0 10 -2 10 -4z m-25 -35 c3 -5 2 -12 -3 -15 -5 -3 -9 1 -9
9 0 17 3 19 12 6z m-65 -5 c0 -2 -7 -7 -16 -10 -8 -3 -12 -2 -9 4 6 10 25 14
25 6z m-237 -39 c4 3 7 4 7 1 0 -3 -8 -12 -17 -19 -14 -12 -16 -12 -8 0 6 11
4 13 -9 8 -23 -9 -37 0 -30 18 5 12 9 12 28 0 13 -8 26 -12 29 -8z m90 0 c3
-7 -3 -13 -14 -13 -13 0 -15 3 -7 13 6 7 12 13 13 13 2 0 5 -6 8 -13z m37 -8
c0 -5 -4 -9 -8 -9 -5 0 -9 7 -9 15 0 8 4 12 9 9 4 -3 8 -9 8 -15z m-85 1 c3
-6 -1 -7 -9 -4 -18 7 -21 14 -7 14 6 0 13 -4 16 -10z m-498 -125 c5 -4 3 -5
-4 -1 -6 3 -14 2 -18 -4 -7 -11 -25 -4 -25 9 0 10 37 7 47 -4z m43 5 c0 -5 -5
-10 -11 -10 -5 0 -7 5 -4 10 3 6 8 10 11 10 2 0 4 -4 4 -10z m2540 0 c0 -5 -2
-10 -4 -10 -3 0 -8 5 -11 10 -3 6 -1 10 4 10 6 0 11 -4 11 -10z m-2715 -40
c-3 -5 -12 -10 -18 -10 -7 0 -6 4 3 10 19 12 23 12 15 0z m35 -14 c0 -3 -4 -8
-10 -11 -5 -3 -10 -1 -10 4 0 6 5 11 10 11 6 0 10 -2 10 -4z m-164 -51 c-3
-23 -12 -26 -13 -5 -1 11 2 20 7 20 4 0 7 -7 6 -15z m-182 -43 c3 -5 -1 -9 -9
-9 -8 0 -12 4 -9 9 3 4 7 8 9 8 2 0 6 -4 9 -8z m3443 -244 c2 -17 0 -19 -7 -8
-5 8 -6 18 -4 22 8 12 10 10 11 -14z m-22 -16 c-3 -3 -11 0 -18 7 -9 10 -8 11
6 5 10 -3 15 -9 12 -12z m-3940 -21 c3 -5 2 -12 -3 -15 -5 -3 -9 1 -9 9 0 17
3 19 12 6z m4015 -19 c-6 -2 -8 -7 -5 -12 3 -4 -2 -10 -10 -14 -8 -3 -17 0
-21 6 -4 6 -3 8 3 5 6 -4 13 0 16 8 4 9 1 12 -9 8 -7 -3 -14 -1 -14 4 0 18 12
22 31 10 11 -7 15 -13 9 -15z m-4155 -112 c3 -5 1 -10 -5 -10 -6 0 -9 -4 -6
-9 5 -8 -2 -8 -33 -2 -7 2 21 31 30 31 4 0 11 -4 14 -10z m4383 -235 c0 -14
-3 -23 -6 -21 -3 3 -10 1 -17 -4 -8 -7 -12 -5 -12 5 0 8 4 12 8 10 10 -7 20
25 12 37 -3 6 -1 8 4 5 6 -4 11 -18 11 -32z m-4921 -220 c0 -8 -4 -12 -9 -9
-5 3 -6 10 -3 15 9 13 12 11 12 -6z m5037 0 c-4 -8 -10 -15 -16 -15 -5 0 -6
-5 -2 -12 4 -7 3 -8 -4 -4 -9 5 -8 12 1 26 14 23 29 27 21 5z m-5154 -125 c0
-5 -4 -10 -10 -10 -5 0 -10 5 -10 10 0 6 5 10 10 10 6 0 10 -4 10 -10z m-44
-77 c1 -9 -3 -10 -11 -3 -7 5 -14 8 -16 5 -3 -2 -6 7 -7 20 -2 24 -1 24 16 7
10 -9 18 -23 18 -29z m5293 -39 c4 3 8 -1 8 -9 0 -11 -4 -12 -14 -4 -7 6 -13
17 -12 23 0 7 2 6 6 -2 2 -6 8 -10 12 -8z m52 -87 c-1 -12 -15 -9 -19 4 -3 6
1 10 8 8 6 -3 11 -8 11 -12z m-7588 -27 c-3 -12 -8 -19 -11 -16 -5 6 5 36 12
36 2 0 2 -9 -1 -20z m-383 -4 c0 -3 -4 -8 -10 -11 -5 -3 -10 -1 -10 4 0 6 5
11 10 11 6 0 10 -2 10 -4z m610 -48 c0 -4 -4 -8 -9 -8 -6 0 -12 4 -15 8 -3 5
1 9 9 9 8 0 15 -4 15 -9z m123 -268 c-3 -11 -9 -20 -14 -20 -14 0 -11 28 4 33
6 3 13 6 14 6 0 1 -1 -8 -4 -19z m7359 -32 c-6 -6 -12 -6 -17 3 -5 8 -4 10 3
5 7 -4 12 0 13 11 0 12 2 13 6 5 3 -8 1 -18 -5 -24z m-8168 -4 c3 -8 2 -12 -4
-9 -6 3 -10 10 -10 16 0 14 7 11 14 -7z m8246 -134 c0 -5 -5 -10 -11 -10 -5 0
-7 5 -4 10 3 6 8 10 11 10 2 0 4 -4 4 -10z m-3 -57 c0 -22 -15 -43 -31 -43 -6
0 -3 5 7 11 9 5 17 14 17 19 0 5 -8 7 -17 3 -15 -5 -14 -3 2 10 11 9 20 17 21
17 0 0 1 -8 1 -17z m-7487 -19 c0 -8 -19 -13 -24 -6 -3 5 1 9 9 9 8 0 15 -2
15 -3z m-793 -34 c-1 -11 -6 -20 -12 -20 -5 0 -3 -5 5 -11 13 -9 13 -10 0 -7
-12 4 -17 27 -11 53 3 15 20 2 18 -15z m2343 -45 c0 -2 -9 -3 -19 -2 -11 0
-18 5 -15 9 4 6 34 0 34 -7z m-2363 -40 c0 -8 -4 -12 -9 -9 -5 3 -6 10 -3 15
9 13 12 11 12 -6z m2358 -4 c3 -5 2 -12 -3 -15 -5 -3 -9 1 -9 9 0 17 3 19 12
6z m-1130 -121 c5 -12 4 -13 -6 -2 -14 13 -33 17 -25 4 2 -4 -6 -8 -20 -8 -13
0 -24 4 -24 8 0 8 16 12 34 9 5 -1 6 5 3 13 -5 13 -3 14 13 4 11 -7 22 -19 25
-28z m-134 7 c-10 -9 -11 -8 -5 6 3 10 9 15 12 12 3 -3 0 -11 -7 -18z m35 -5
c-17 -16 -18 -16 -5 5 7 12 15 20 18 17 3 -2 -3 -12 -13 -22z m-188 -7 c-3 -3
-9 2 -12 12 -6 14 -5 15 5 6 7 -7 10 -15 7 -18z m127 5 c-3 -5 -12 -10 -18
-10 -7 0 -6 4 3 10 19 12 23 12 15 0z m1193 -45 c-3 -3 -9 2 -12 12 -6 14 -5
15 5 6 7 -7 10 -15 7 -18z m-1285 -150 c-3 -9 -8 -14 -10 -11 -3 3 -2 9 2 15
9 16 15 13 8 -4z m95 -5 c-7 -10 -14 -17 -17 -15 -4 4 18 35 25 35 2 0 -1 -9
-8 -20z m72 16 c0 -2 -8 -10 -17 -17 -16 -13 -17 -12 -4 4 13 16 21 21 21 13z
m48 -16 c-7 -10 -14 -17 -17 -15 -4 4 18 35 25 35 2 0 -1 -9 -8 -20z m265 5
c-3 -9 -8 -14 -10 -11 -3 3 -2 9 2 15 9 16 15 13 8 -4z m34 -3 c-10 -10 -14
-22 -10 -27 5 -4 2 -5 -5 -1 -11 6 -10 12 4 27 9 10 19 19 22 19 3 0 -2 -8
-11 -18z m191 -7 c-3 -3 -9 2 -12 12 -6 14 -5 15 5 6 7 -7 10 -15 7 -18z m239
10 c0 -8 -3 -13 -5 -10 -3 3 -12 -1 -21 -7 -10 -8 -9 -4 3 10 23 26 23 26 23
7z m39 0 c-1 -8 -5 -17 -8 -21 -5 -4 -4 16 1 34 3 9 9 -1 7 -13z m60 0 c-1 -8
-5 -17 -8 -21 -5 -4 -4 16 1 34 3 9 9 -1 7 -13z m-1146 -1 c0 -8 -19 -13 -24
-6 -3 5 1 9 9 9 8 0 15 -2 15 -3z m480 0 c0 -8 -19 -13 -24 -6 -3 5 1 9 9 9 8
0 15 -2 15 -3z m267 -14 c-1 -21 -10 -18 -13 5 -1 8 2 15 6 15 5 0 8 -9 7 -20z
m126 5 c-3 -9 -8 -14 -10 -11 -3 3 -2 9 2 15 9 16 15 13 8 -4z m465 -11 c-12
-12 -17 -13 -23 -3 -5 8 -4 10 4 5 6 -4 14 0 17 9 4 9 9 13 12 10 3 -3 -1 -13
-10 -21z m-1408 -4 c0 -5 -2 -10 -4 -10 -3 0 -8 5 -11 10 -3 6 -1 10 4 10 6 0
11 -4 11 -10z m7555 -45 c1 -28 -1 -32 -12 -23 -11 8 -12 7 -7 -6 4 -9 1 -16
-6 -16 -7 0 -2 -9 11 -20 13 -10 19 -19 12 -20 -6 0 -18 7 -27 15 -15 16 -13
37 8 64 9 12 8 13 -6 8 -10 -3 -18 -2 -18 3 0 6 8 10 18 11 12 0 13 2 3 6 -11
4 -11 7 0 14 18 11 23 4 24 -36z m-6121 -261 c-18 -15 -18 -15 1 -9 16 5 18 4
8 -6 -14 -14 -18 -33 -5 -26 4 3 8 -13 8 -34 2 -42 -7 -47 -11 -7 -4 37 -5 39
-12 35 -5 -3 -8 9 -8 27 0 24 4 32 18 34 19 1 19 1 1 -14z m-2214 -14 c0 -5
-5 -10 -11 -10 -5 0 -7 5 -4 10 3 6 8 10 11 10 2 0 4 -4 4 -10z m2204 -120
c-5 -5 -10 3 -11 18 -1 22 0 24 9 8 6 -10 6 -22 2 -26z m6053 -9 c0 -11 -5
-18 -9 -15 -4 3 -5 11 -1 19 7 21 12 19 10 -4z m18 -61 c3 -5 0 -7 -9 -4 -11
4 -14 -1 -12 -20 2 -14 -1 -26 -6 -26 -7 0 -6 36 1 58 2 6 21 1 26 -8z m-6075
-4 c0 -3 -4 -8 -10 -11 -5 -3 -10 -1 -10 4 0 6 5 11 10 11 6 0 10 -2 10 -4z
m6116 -106 c0 -12 -4 -16 -9 -11 -5 5 -6 14 -3 20 10 15 12 14 12 -9z m55 -8
c-6 -2 -8 -9 -5 -14 4 -7 2 -8 -4 -4 -6 4 -9 14 -6 24 5 14 3 14 -10 -2 -9
-11 -16 -15 -16 -10 0 21 23 34 38 22 9 -8 10 -14 3 -16z m-6518 -427 c-3 -9
-8 -14 -10 -11 -3 3 -2 9 2 15 9 16 15 13 8 -4z m78 -237 c-13 -4 -28 -5 -34
-1 -14 9 23 22 42 15 10 -4 8 -8 -8 -14z m66 -84 c-3 -3 -12 -4 -19 -1 -8 3
-5 6 6 6 11 1 17 -2 13 -5z m6428 -24 c-6 -9 8 -14 28 -11 5 1 6 -3 3 -8 -10
-16 -44 -9 -41 9 5 21 4 20 11 20 3 0 2 -4 -1 -10z m-465 -4 c0 -2 -8 -10 -17
-17 -16 -13 -17 -12 -4 4 13 16 21 21 21 13z m-5770 -52 c0 -8 -19 -13 -24 -6
-3 5 1 9 9 9 8 0 15 -2 15 -3z m6024 -10 c3 -8 2 -12 -4 -9 -6 3 -10 2 -10 -2
0 -5 -9 -9 -20 -10 -11 -1 -18 2 -15 7 3 5 -2 13 -11 18 -12 6 -7 9 19 10 23
1 37 -4 41 -14z m-414 -114 c0 -5 -5 -10 -11 -10 -5 0 -7 5 -4 10 3 6 8 10 11
10 2 0 4 -4 4 -10z m-5000 -296 c0 -2 -9 0 -20 6 -11 6 -20 13 -20 16 0 2 9 0
20 -6 11 -6 20 -13 20 -16z m160 -184 c0 -5 -2 -10 -4 -10 -3 0 -8 5 -11 10
-3 6 -1 10 4 10 6 0 11 -4 11 -10z m4325 -118 c-3 -3 -11 0 -18 7 -9 10 -8 11
6 5 10 -3 15 -9 12 -12z m-225 -142 c0 -5 -5 -10 -11 -10 -5 0 -7 5 -4 10 3 6
8 10 11 10 2 0 4 -4 4 -10z m-216 -174 c-2 -6 -13 -12 -24 -13 -16 -1 -18 1
-8 17 12 19 40 16 32 -4z m-3211 -70 c-3 -5 -1 -6 6 -2 6 4 9 11 6 16 -3 5 -2
11 3 14 4 2 9 -6 10 -19 1 -13 -3 -22 -11 -21 -23 3 -36 17 -30 32 4 12 8 13
14 3 4 -7 5 -17 2 -23z m64 9 c0 -8 -4 -12 -9 -9 -5 3 -6 10 -3 15 9 13 12 11
12 -6z m2907 -57 c-6 -19 -5 -21 8 -11 12 10 15 10 15 -1 0 -8 -7 -12 -16 -11
-9 2 -19 4 -22 4 -4 1 -10 8 -13 17 -3 8 -2 12 3 9 5 -3 12 -1 16 5 11 18 17
11 9 -12z m-2669 -48 c3 -5 1 -10 -4 -10 -6 0 -11 5 -11 10 0 6 2 10 4 10 3 0
8 -4 11 -10z m-10 -29 c-6 -5 -25 10 -25 20 0 5 6 4 14 -3 8 -7 12 -15 11 -17z
m2395 -46 c14 -19 14 -19 -2 -6 -10 7 -18 18 -18 24 0 6 1 8 3 6 1 -2 9 -13
17 -24z m-2200 0 c0 -7 -30 -13 -34 -7 -3 4 4 9 15 9 10 1 19 0 19 -2z m139
-52 c-12 -14 -12 -16 2 -11 9 3 22 2 30 -3 9 -5 4 -7 -16 -5 -17 2 -32 4 -34
5 -5 1 20 31 26 31 3 0 -1 -8 -8 -17z m255 -49 c3 -8 2 -12 -4 -9 -6 3 -10 10
-10 16 0 14 7 11 14 -7z m1398 -26 c-7 -7 -12 -8 -12 -2 0 14 12 26 19 19 2
-3 -1 -11 -7 -17z"/>
<path d="M5530 7522 c0 -5 7 -9 15 -9 8 0 12 4 9 9 -3 4 -9 8 -15 8 -5 0 -9
-4 -9 -8z"/>
<path d="M4864 7483 c0 -12 8 -18 22 -18 27 0 25 29 -2 33 -13 2 -20 -3 -20
-15z"/>
<path d="M6268 7373 c7 -3 16 -2 19 1 4 3 -2 6 -13 5 -11 0 -14 -3 -6 -6z"/>
<path d="M4655 7079 c-11 -16 -1 -19 13 -3 7 8 8 14 3 14 -5 0 -13 -5 -16 -11z"/>
<path d="M6877 7029 c7 -7 15 -10 18 -7 3 3 -2 9 -12 12 -14 6 -15 5 -6 -5z"/>
<path d="M6944 6979 c-14 -24 -12 -35 7 -36 25 -2 31 10 15 32 -11 15 -14 16
-22 4z m11 -9 c-3 -5 -1 -10 6 -10 7 0 10 -3 6 -6 -9 -9 -28 6 -22 17 4 5 8 9
11 9 3 0 2 -4 -1 -10z"/>
<path d="M4816 6942 c-3 -5 1 -9 9 -9 8 0 12 4 9 9 -3 4 -7 8 -9 8 -2 0 -6 -4
-9 -8z"/>
<path d="M5346 6847 c3 -10 9 -15 12 -12 3 3 0 11 -7 18 -10 9 -11 8 -5 -6z"/>
<path d="M7227 6739 c-4 -16 -2 -17 14 -8 23 12 23 15 5 22 -8 3 -16 -2 -19
-14z"/>
<path d="M4815 6720 c3 -5 8 -10 11 -10 2 0 4 5 4 10 0 6 -5 10 -11 10 -5 0
-7 -4 -4 -10z"/>
<path d="M4355 6580 c-3 -5 -1 -10 4 -10 6 0 11 5 11 10 0 6 -2 10 -4 10 -3 0
-8 -4 -11 -10z"/>
<path d="M3910 6340 c0 -5 5 -10 10 -10 6 0 10 5 10 10 0 6 -4 10 -10 10 -5 0
-10 -4 -10 -10z"/>
<path d="M3395 5980 c-3 -5 -1 -10 4 -10 6 0 11 5 11 10 0 6 -2 10 -4 10 -3 0
-8 -4 -11 -10z"/>
<path d="M2996 5642 c-3 -5 1 -9 9 -9 8 0 12 4 9 9 -3 4 -7 8 -9 8 -2 0 -6 -4
-9 -8z"/>
<path d="M8146 5598 c3 -5 10 -6 15 -3 13 9 11 12 -6 12 -8 0 -12 -4 -9 -9z"/>
<path d="M2813 5415 c0 -8 4 -12 9 -9 5 3 6 10 3 15 -9 13 -12 11 -12 -6z"/>
<path d="M2800 5349 c0 -5 5 -7 10 -4 6 3 10 8 10 11 0 2 -4 4 -10 4 -5 0 -10
-5 -10 -11z"/>
<path d="M776 5321 c-3 -5 1 -11 9 -14 9 -4 12 -1 8 9 -6 16 -10 17 -17 5z"/>
<path d="M810 5321 c0 -6 4 -13 10 -16 6 -3 7 1 4 9 -7 18 -14 21 -14 7z"/>
<path d="M2766 5314 c-11 -8 -16 -14 -10 -14 13 0 39 18 34 24 -3 2 -14 -2
-24 -10z"/>
<path d="M8336 5207 c3 -10 9 -15 12 -12 3 3 0 11 -7 18 -10 9 -11 8 -5 -6z"/>
<path d="M8306 5178 c3 -4 9 -8 15 -8 5 0 9 4 9 8 0 5 -7 9 -15 9 -8 0 -12 -4
-9 -9z"/>
<path d="M174 5138 c-4 -7 -4 -10 1 -6 4 4 15 2 24 -5 14 -11 14 -10 2 6 -16
20 -18 21 -27 5z"/>
<path d="M179 5108 c-7 -23 -4 -35 7 -35 8 0 14 4 14 9 0 4 -5 8 -11 8 -5 0
-7 5 -4 10 3 6 4 10 1 10 -3 0 -6 -1 -7 -2z"/>
<path d="M2637 5093 c-12 -11 -8 -23 9 -23 8 0 13 4 10 9 -4 5 0 12 6 14 9 4
8 6 -3 6 -9 1 -19 -2 -22 -6z"/>
<path d="M178 5053 c6 -2 9 -10 5 -16 -20 -31 2 -46 28 -20 12 12 -14 44 -34
42 -8 0 -8 -2 1 -6z m26 -34 c-3 -5 -10 -7 -15 -3 -5 3 -7 10 -3 15 3 5 10 7
15 3 5 -3 7 -10 3 -15z"/>
<path d="M990 4918 c0 -11 12 -10 30 2 12 7 10 9 -8 7 -12 0 -22 -5 -22 -9z"/>
<path d="M2531 4844 c0 -11 3 -14 6 -6 3 7 2 16 -1 19 -3 4 -6 -2 -5 -13z"/>
<path d="M124 4756 c-9 -10 -7 -15 6 -24 14 -9 19 -8 24 3 3 10 0 12 -12 8
-15 -6 -15 -5 -3 10 16 20 2 23 -15 3z"/>
<path d="M930 4683 c0 -3 8 -12 18 -19 13 -11 13 -13 2 -11 -8 2 -11 2 -6 -1
4 -2 3 -7 -2 -11 -7 -4 -3 -12 11 -20 20 -13 21 -13 8 2 -7 10 -9 17 -3 17 5
0 10 10 10 23 0 15 -7 23 -19 24 -11 1 -19 -1 -19 -4z"/>
<path d="M939 4594 c11 -14 19 -31 17 -37 -1 -7 -1 -9 1 -4 3 4 10 4 16 1 9
-5 9 -4 0 6 -6 7 -9 19 -6 28 4 10 2 13 -5 8 -7 -4 -12 -3 -12 2 0 6 -7 13
-16 16 -12 4 -11 0 5 -20z"/>
<path d="M2439 4548 c-6 -21 -5 -38 1 -38 5 0 8 9 7 20 -1 17 -5 26 -8 18z"/>
<path d="M1469 4521 c-5 -30 -3 -36 11 -37 8 0 20 4 27 8 6 5 14 5 17 0 6 -10
86 -9 103 1 7 5 21 3 32 -3 22 -11 42 -14 25 -2 -6 4 -16 16 -22 27 -6 11 -12
14 -12 8 0 -7 -5 -13 -11 -13 -5 0 -8 4 -5 8 2 4 -6 8 -19 8 -18 0 -22 -3 -14
-12 8 -10 5 -12 -10 -11 -14 1 -20 6 -16 16 4 11 3 12 -10 1 -12 -10 -15 -10
-15 1 0 11 -2 11 -10 -1 -9 -13 -10 -13 -10 0 0 13 -1 13 -10 0 -9 -13 -10
-13 -10 0 0 13 -2 13 -9 0 -6 -8 -7 -18 -5 -22 3 -4 -2 -5 -11 -1 -12 4 -13 8
-5 13 9 5 9 9 1 14 -6 4 -12 2 -12 -3z m156 -10 c3 -5 2 -12 -3 -15 -5 -3 -9
1 -9 9 0 17 3 19 12 6z m-57 -16 c3 -3 -4 -4 -16 -2 -12 2 -24 6 -28 10 -4 3
4 4 16 2 12 -2 25 -7 28 -10z"/>
<path d="M1672 4519 c2 -6 8 -11 13 -11 6 -1 15 -8 21 -16 9 -12 11 -11 9 8
-1 16 -9 24 -24 27 -13 2 -21 -1 -19 -8z"/>
<path d="M1755 4520 c-3 -5 -1 -10 4 -10 6 0 11 5 11 10 0 6 -2 10 -4 10 -3 0
-8 -4 -11 -10z"/>
<path d="M1796 4517 c4 -11 2 -17 -6 -15 -7 2 -15 -4 -17 -12 -3 -10 -2 -11 4
-4 4 6 16 10 25 8 10 -1 21 3 25 9 3 7 3 9 -2 5 -4 -4 -14 0 -22 10 -12 16
-13 16 -7 -1z"/>
<path d="M8499 4513 c-13 -16 -12 -17 4 -4 16 13 21 21 13 21 -2 0 -10 -8 -17
-17z"/>
<path d="M1910 4510 c-9 -6 -10 -10 -3 -10 6 0 15 5 18 10 8 12 4 12 -15 0z"/>
<path d="M1730 4501 c0 -5 7 -12 16 -15 14 -5 15 -4 4 9 -14 17 -20 19 -20 6z"/>
<path d="M2135 4500 c-3 -5 -1 -10 4 -10 6 0 11 5 11 10 0 6 -2 10 -4 10 -3 0
-8 -4 -11 -10z"/>
<path d="M8476 4463 c7 -5 14 -17 17 -28 4 -18 5 -17 6 3 1 16 5 21 14 16 6
-4 9 -3 4 1 -4 5 -18 10 -30 12 -12 2 -17 0 -11 -4z"/>
<path d="M76 4417 c3 -10 9 -15 12 -12 3 3 0 11 -7 18 -10 9 -11 8 -5 -6z"/>
<path d="M8474 4400 c0 -13 4 -16 10 -10 7 7 7 13 0 20 -6 6 -10 3 -10 -10z"/>
<path d="M8490 4370 c-8 -16 -8 -22 4 -26 8 -3 12 -12 9 -20 -3 -8 -1 -14 4
-14 5 0 9 11 9 24 0 16 -5 22 -13 19 -9 -4 -11 0 -7 11 3 9 11 13 17 9 6 -3 7
-1 3 5 -10 16 -14 15 -26 -8z"/>
<path d="M877 4215 c-4 -8 -3 -16 1 -19 4 -3 9 4 9 15 2 23 -3 25 -10 4z"/>
<path d="M10 4099 c0 -5 5 -7 10 -4 6 3 10 8 10 11 0 2 -4 4 -10 4 -5 0 -10
-5 -10 -11z"/>
<path d="M8496 4101 c-3 -5 2 -15 12 -22 15 -13 16 -12 4 3 -10 13 -10 17 0
21 9 4 9 6 1 6 -6 1 -14 -3 -17 -8z"/>
<path d="M16 4053 c-6 -14 -5 -15 5 -6 7 7 10 15 7 18 -3 3 -9 -2 -12 -12z"/>
<path d="M827 3993 c-12 -11 -8 -19 12 -20 14 -1 18 3 14 13 -6 15 -16 18 -26
7z"/>
<path d="M747 3877 c-7 -19 4 -32 30 -33 16 0 20 4 17 19 -2 11 -6 22 -10 26
-4 3 -5 -1 -2 -9 4 -11 0 -16 -13 -16 -13 0 -15 3 -7 13 7 9 7 13 0 13 -5 0
-12 -6 -15 -13z"/>
<path d="M230 3859 c0 -5 5 -7 10 -4 6 3 10 8 10 11 0 2 -4 4 -10 4 -5 0 -10
-5 -10 -11z"/>
<path d="M484 3798 l-19 -23 23 19 c12 11 22 21 22 23 0 8 -8 2 -26 -19z"/>
<path d="M515 3799 c-3 -4 2 -6 10 -5 21 3 28 13 10 13 -9 0 -18 -4 -20 -8z"/>
<path d="M8773 3535 c0 -8 4 -12 9 -9 5 3 6 10 3 15 -9 13 -12 11 -12 -6z"/>
<path d="M2115 3460 c-3 -6 1 -7 9 -4 18 7 21 14 7 14 -6 0 -13 -4 -16 -10z"/>
<path d="M8826 3432 c-2 -4 4 -8 15 -8 10 0 19 4 19 8 0 4 -6 8 -14 8 -8 0
-17 -4 -20 -8z"/>
<path d="M8905 3320 c-3 -5 -1 -10 4 -10 6 0 11 5 11 10 0 6 -2 10 -4 10 -3 0
-8 -4 -11 -10z"/>
<path d="M8874 3168 c-3 -4 -4 -8 -2 -9 26 -6 37 -5 41 5 5 13 -31 17 -39 4z"/>
<path d="M2013 3005 c0 -8 4 -12 9 -9 5 3 6 10 3 15 -9 13 -12 11 -12 -6z"/>
<path d="M8836 2994 c-5 -14 -4 -15 9 -4 17 14 19 20 6 20 -5 0 -12 -7 -15
-16z"/>
<path d="M8769 2963 c-13 -16 -12 -17 4 -4 16 13 21 21 13 21 -2 0 -10 -8 -17
-17z"/>
<path d="M8735 2889 c-4 -6 -5 -12 -2 -15 2 -3 7 2 10 11 7 17 1 20 -8 4z"/>
<path d="M2173 2843 c0 -7 4 -13 9 -13 5 0 6 -5 2 -11 -5 -8 -2 -9 11 -1 27
14 27 38 0 38 -12 0 -22 -6 -22 -13z m32 -3 c3 -5 1 -10 -4 -10 -6 0 -11 5
-11 10 0 6 2 10 4 10 3 0 8 -4 11 -10z"/>
<path d="M2295 2790 c-4 -7 1 -19 10 -28 10 -10 15 -12 11 -5 -3 6 -1 13 5 15
7 2 6 8 -4 16 -11 10 -17 10 -22 2z"/>
<path d="M8470 2796 c0 -2 8 -10 18 -17 15 -13 16 -12 3 4 -13 16 -21 21 -21
13z"/>
<path d="M8213 2765 c0 -7 6 -11 14 -8 7 3 13 6 13 8 0 2 -6 5 -13 8 -8 3 -14
-1 -14 -8z"/>
<path d="M8027 2732 c-6 -13 -2 -32 7 -34 5 -2 15 6 22 17 12 19 11 21 -6 22
-11 1 -21 -1 -23 -5z m23 -11 c0 -6 -4 -12 -8 -15 -5 -3 -9 1 -9 9 0 8 4 15 9
15 4 0 8 -4 8 -9z"/>
<path d="M7906 2559 c3 -5 10 -6 16 -3 8 5 9 1 5 -10 -4 -11 -3 -15 4 -11 14
10 6 28 -14 31 -9 1 -15 -2 -11 -7z"/>
<path d="M2750 2556 c0 -2 8 -10 18 -17 15 -13 16 -12 3 4 -13 16 -21 21 -21
13z"/>
<path d="M2810 2480 c0 -11 2 -20 4 -20 2 0 6 9 9 20 3 11 1 20 -4 20 -5 0 -9
-9 -9 -20z"/>
<path d="M3337 1982 c-15 -16 -15 -18 1 -18 10 0 18 8 18 18 0 10 -1 18 -2 18
0 0 -8 -8 -17 -18z"/>
<path d="M7186 1875 c-3 -8 -10 -14 -15 -13 -5 2 -10 -1 -10 -6 -2 -13 23 -16
40 -5 12 7 12 9 0 9 -11 0 -11 3 -1 15 7 9 8 15 2 15 -5 0 -12 -7 -16 -15z"/>
<path d="M3893 1640 c-1 -11 2 -22 8 -25 5 -4 8 3 6 14 -4 28 -12 34 -14 11z"/>
<path d="M6548 1533 c7 -3 16 -2 19 1 4 3 -2 6 -13 5 -11 0 -14 -3 -6 -6z"/>
<path d="M6548 1503 c7 -3 16 -2 19 1 4 3 -2 6 -13 5 -11 0 -14 -3 -6 -6z"/>
<path d="M4347 1483 c-3 -5 1 -16 8 -26 10 -15 14 -15 18 -3 6 16 -18 42 -26
29z"/>
<path d="M4549 1418 c7 -9 10 -22 6 -27 -3 -6 0 -8 9 -5 8 3 17 12 20 21 4 8
13 13 21 9 8 -3 17 -2 19 3 3 4 -8 7 -24 7 -16 0 -27 -3 -24 -8 8 -12 -10 -9
-26 5 -12 10 -12 9 -1 -5z"/>
<path d="M6200 1420 c-12 -7 -10 -9 7 -7 12 0 19 5 17 9 -6 10 -6 10 -24 -2z"/>
</g>
</svg>
